<svg xmlns="http://www.w3.org/2000/svg" width="24" height="24" viewBox="0 0 24 24">
  <path d="M14.94 5.19A4.38 4.38 0 0 0 16 2.5a4.38 4.38 0 0 0-2.91 1.5 4.09 4.09 0 0 0-1.03 2.96 3.61 3.61 0 0 0 2.88-1.77zm2.52 2.96A4.46 4.46 0 0 1 19.5 12c0 2.5-1.48 4.73-3.71 5.67-.93.39-1.84.58-2.79.58s-1.86-.19-2.79-.58C8.03 16.73 6.5 14.5 6.5 12c0-1.67.71-3.17 1.85-4.21 1.14-1.04 2.71-1.68 4.44-1.68 1.73 0 3.3.64 4.44 1.68.83.76 1.43 1.74 1.73 2.84-.69.06-1.31.37-1.77.83-.46.46-.77 1.08-.83 1.77-.06.69.13 1.38.54 1.95.41.57 1.01.96 1.69 1.1-.2.89-.6 1.71-1.16 2.4-.75.92-1.77 1.56-2.91 1.84-.47.12-.95.18-1.44.18s-.97-.06-1.44-.18c-1.14-.28-2.16-.92-2.91-1.84-.56-.69-.96-1.51-1.16-2.4.68-.14 1.28-.53 1.69-1.1.41-.57.6-1.26.54-1.95-.06-.69-.37-1.31-.83-1.77-.46-.46-1.08-.77-1.77-.83.3-1.1.9-2.08 1.73-2.84C9.2 6.11 10.77 5.47 12.5 5.47c1.73 0 3.3.64 4.44 1.68.19.17.37.36.52.56-.37.19-.7.45-.97.77-.46.46-.77 1.08-.83 1.77-.06.69.13 1.38.54 1.95.41.57 1.01.96 1.69 1.1-.2.89-.6 1.71-1.16 2.4-.75.92-1.77 1.56-2.91 1.84-.47.12-.95.18-1.44.18s-.97-.06-1.44-.18c-1.14-.28-2.16-.92-2.91-1.84-.56-.69-.96-1.51-1.16-2.4.68-.14 1.28-.53 1.69-1.1.41-.57.6-1.26.54-1.95-.06-.69-.37-1.31-.83-1.77-.27-.32-.6-.58-.97-.77.15-.2.33-.39.52-.56C9.2 6.11 10.77 5.47 12.5 5.47c1.73 0 3.3.64 4.44 1.68.19.17.37.36.52.56z"/>
</svg>

